<?xml version="1.0" ?><svg id="Capa_1" style="enable-background:new 0 0 512 512;" version="1.1" viewBox="0 0 512 512" xml:space="preserve" xmlns="http://www.w3.org/2000/svg" xmlns:xlink="http://www.w3.org/1999/xlink"><style type="text/css">
	.st0{fill:#DDB484;}
	.st1{fill:#B18974;}
	.st2{fill:#FFDC8C;}
	.st3{fill:#464C54;}
</style><g><g><g><polygon class="st0" points="38.4,162.7 38.4,364.3 221.4,447.1 221.4,240.1    "/></g><g><polygon class="st1" points="419.9,159.9 419.9,361.5 232.4,444.3 234,240.8    "/></g><g><polygon class="st1" points="43.7,153.1 228.1,61.4 415.2,151.3 228.1,234.8    "/></g><g><g><path class="st2" d="M99.7,175.7l0.3,90.1c0,2.8,3.4,4.3,5.4,2.3l22.4-21.6l21.4,43.4c1.5,3,6.1,2,6.1-1.4v-86.9L99.7,175.7z"/></g></g><g><polygon class="st2" points="283.8,88.3 99.7,175.7 155.4,204.2 337.9,116.1    "/></g></g><path class="st3" d="M275.5,76.4l-48-22.9l-200,96.4v215.2l200.5,93.1l200.5-93.1V149.6L275.5,76.4z M288,97.4l40.6,19.6   l-167.4,79.6l-13.2-6.1l-31.4-15.2L288,97.4z M148.6,213.3v59.9l-12.9-26.1c-1.4-2.8-4-4.8-7.1-5.3c-0.6-0.1-1.1-0.1-1.7-0.1   c-2.5,0-5,1-6.8,2.7l-13.5,13l-0.2-63L148.6,213.3z M227.5,68.5l45,21.5L99.8,171.1c-0.8,0.3-1.6,0.6-2.4,1.1c0,0-0.1,0.1-0.1,0.1   l-2,0.9l-42.2-18.3L227.5,68.5z M220.2,437L41.1,356.4V165.2l51.8,23.2l0.3,77.9c0,3.9,2.4,7.4,6,9c3.6,1.5,7.8,0.8,10.6-2   l16.1-15.5l17.7,35.8c1.7,3.4,5.1,5.5,8.7,5.5c0.7,0,1.5-0.1,2.3-0.3c4.4-1,7.6-5,7.6-9.5v-69.9l58,26V437z M228.1,232.9   l-56.6-23.5l172.9-85.1l60.2,28.7L228.1,232.9z M415.2,356.4L236.1,437V245.3l179.1-80.2V356.4z"/></g><g><g><circle class="st2" cx="368.9" cy="337.9" r="109.7"/></g><g><g><path class="st3" d="M368.8,351.2l-57.2-60.6c-3.2-3.3-3-8.6,0.3-11.8c3.3-3.2,8.6-3,11.8,0.3l45.8,48.5l17.9-16.9     c3.3-3.2,8.6-3,11.8,0.3c3.2,3.3,3,8.6-0.3,11.8L368.8,351.2z"/></g></g><g><path class="st3" d="M368.9,219.9c-65.1,0-118.1,53-118.1,118.1S303.8,456,368.9,456S487,403,487,337.9S434,219.9,368.9,219.9z     M377.1,438.9v-15.5c0-4.6-3.7-8.3-8.3-8.3c-4.6,0-8.3,3.7-8.3,8.3v15.5c-49.5-4.1-88.9-43.9-92.6-93.6H284c4.6,0,8.3-3.7,8.3-8.3    s-3.7-8.3-8.3-8.3h-16c4.4-48.7,43.5-87.6,92.3-91.7v15.5c0,4.6,3.7,8.3,8.3,8.3s8.3-3.7,8.3-8.3v-15.6    c49.1,3.9,88.5,42.8,92.9,91.8h-16c-4.6,0-8.3,3.7-8.3,8.3s3.7,8.3,8.3,8.3H470C466.3,395.1,426.7,434.9,377.1,438.9z"/></g></g></svg>